<svg width="28" height="27" viewBox="0 0 28 27" fill="none" xmlns="http://www.w3.org/2000/svg">
<path d="M14 0C13.0544 0 12.0956 0.213822 11.166 0.587006C11.0409 0.961051 10.9379 1.43312 10.8791 1.9487C10.8021 2.62456 10.7774 3.36497 10.7691 4.05934C12.7611 3.84701 15.2389 3.84701 17.2309 4.05934C17.2226 3.36497 17.1979 2.6245 17.1209 1.94864C17.0621 1.43318 16.9591 0.961051 16.834 0.587006C15.9044 0.213822 14.9456 0 14 0ZM19.9155 1.1082C20.4635 1.51257 20.9806 1.96108 21.4615 2.44009C21.5515 2.05888 21.7374 1.71229 21.9927 1.42573L19.9155 1.1082ZM9.91376 1.19362C7.87406 2.35273 6.08747 4.21544 5.05777 6.1427C3.11188 9.78489 2.72306 15.1402 5.02659 18.4561C6.75212 20.9395 10.7221 21.8981 14 21.8981C17.2779 21.8981 21.2479 20.9396 22.9734 18.456C25.277 15.1402 24.8881 9.78489 22.9422 6.14264C21.9125 4.21538 20.1259 2.35278 18.0863 1.19362C18.1203 1.40285 18.1485 1.61713 18.1732 1.83474C18.2628 2.61975 18.2857 3.45113 18.2917 4.20036C19.392 4.38117 20.2353 4.64331 20.5882 4.98726C22.4706 6.82166 25.0316 12.7086 21.5294 17.828C19.3145 21.0657 8.68553 21.0657 6.47059 17.828C2.96841 12.7086 5.52941 6.82166 7.41176 4.98726C7.76471 4.64331 8.60794 4.38117 9.70823 4.20036C9.71429 3.45113 9.73724 2.61975 9.82676 1.83474C9.85147 1.61713 9.87976 1.40285 9.91376 1.19362ZM2.70588 1.43312C2.18606 1.43312 1.76471 1.84374 1.76471 2.35032C1.76472 2.49984 1.80225 2.64709 1.87402 2.77924C1.94578 2.9114 2.04962 3.02445 2.17647 3.10855V7.02229L3.23529 6.24841V3.10758C3.36201 3.02357 3.46575 2.91067 3.53752 2.7787C3.60928 2.64673 3.64688 2.49967 3.64706 2.35032C3.64706 1.84374 3.22571 1.43312 2.70588 1.43312ZM23.8124 1.64408C23.0588 1.64408 22.4594 2.22822 22.4594 2.96255C22.4594 3.69688 23.0588 4.28102 23.8124 4.28102C24.5659 4.28102 25.1653 3.69688 25.1653 2.96255C25.1653 2.22822 24.5659 1.64408 23.8124 1.64408ZM25.2989 4.80869C24.8884 5.12381 24.372 5.31287 23.8125 5.31287C23.7686 5.31287 23.7254 5.31132 23.6822 5.30903C23.7299 5.392 23.7766 5.47551 23.8222 5.55954L25.5782 6.84304L25.2989 4.80869ZM11.2506 4.95201C10.2355 4.95717 9.05906 5.16738 8.11924 5.87608C6.55253 7.05743 5.58782 12.4549 6.14924 14.2892C7.12476 10.7485 8.03118 7.17982 12.4975 5.04424C12.085 4.98121 11.6681 4.95041 11.2506 4.95201ZM3.30618 7.48634L1.30294 8.95059L0.451176 13.1014L2.69706 15.7276C2.05312 13.0607 2.35729 10.0683 3.30618 7.48634ZM24.6938 7.48634C25.6426 10.0684 25.9469 13.0607 25.3029 15.7276L27.5488 13.1012L26.6971 8.95047L24.6938 7.48634ZM5.21441 20.2317C5.00365 20.2987 4.78782 20.4269 4.60959 20.6005C4.36629 20.8376 4.21665 21.1411 4.18818 21.409C4.20053 21.4299 4.22365 21.4754 4.28994 21.533C4.43424 21.6584 4.68365 21.8294 5.00329 22.0121C5.64253 22.3778 6.56506 22.8007 7.60359 23.1943C8.84929 23.6665 10.2712 24.0945 11.5882 24.3626V22.7799C9.26641 22.4864 6.88841 21.7294 5.21441 20.2317ZM22.7856 20.2317C21.1116 21.7293 18.7335 22.4862 16.4118 22.7797V24.3625C17.7286 24.0944 19.1506 23.6664 20.3964 23.1942C21.4349 22.8007 22.3574 22.3777 22.9966 22.0121C23.3163 21.8292 23.5657 21.6584 23.71 21.5328C23.7763 21.4753 23.7994 21.4298 23.8118 21.409C23.7834 21.141 23.6337 20.8375 23.3904 20.6004C23.2122 20.4267 22.9963 20.2987 22.7856 20.2315V20.2317ZM3.48953 22.2192L0 24.4863V27H2.17647V25.9682H3.23529V27H24.7647V25.9682H25.8235V27H28V24.4863L24.5105 22.2192C24.4789 22.2472 24.4469 22.2748 24.415 22.3027C24.1843 22.5032 23.8896 22.6977 23.5328 22.9019C22.8191 23.3101 21.8592 23.747 20.7801 24.156C18.6219 24.9739 16.0147 25.6815 14 25.6815C11.9853 25.6815 9.37812 24.974 7.21988 24.1561C6.14077 23.7471 5.18094 23.3102 4.46724 22.902C4.11041 22.6979 3.81571 22.5033 3.585 22.3027C3.55306 22.2748 3.52112 22.2472 3.48953 22.2192ZM12.6471 22.8832V24.5451C13.1315 24.6117 13.5889 24.6497 14 24.6497C14.4111 24.6497 14.8685 24.6117 15.3529 24.5451V22.8832C14.4521 22.9455 13.5479 22.9455 12.6471 22.8832Z" fill="#FFFFFD"/>
</svg>
