<svg width="20" height="20" viewBox="0 0 20 20" fill="none" xmlns="http://www.w3.org/2000/svg">
<path d="M20 10V17.7778C20 18.3671 19.7659 18.9324 19.3491 19.3491C18.9324 19.7659 18.3671 20 17.7778 20H2.22222C1.63285 20 1.06762 19.7659 0.650874 19.3491C0.234126 18.9324 0 18.3671 0 17.7778V10H20ZM14.4444 0C14.7391 0 15.0217 0.117063 15.2301 0.325437C15.4385 0.533811 15.5556 0.816426 15.5556 1.11111V2.22222H17.7778C18.3671 2.22222 18.9324 2.45635 19.3491 2.8731C19.7659 3.28984 20 3.85507 20 4.44444V7.77778H0V4.44444C0 3.85507 0.234126 3.28984 0.650874 2.8731C1.06762 2.45635 1.63285 2.22222 2.22222 2.22222H4.44444V1.11111C4.44444 0.816426 4.56151 0.533811 4.76988 0.325437C4.97826 0.117063 5.26087 0 5.55556 0C5.85024 0 6.13286 0.117063 6.34123 0.325437C6.5496 0.533811 6.66667 0.816426 6.66667 1.11111V2.22222H13.3333V1.11111C13.3333 0.816426 13.4504 0.533811 13.6588 0.325437C13.8671 0.117063 14.1498 0 14.4444 0Z" fill="#FFFFFD"/>
</svg>
