<svg width="157" height="157" viewBox="0 0 157 157" fill="none" xmlns="http://www.w3.org/2000/svg">
<path d="M60.0695 72.8715C58.5924 71.3944 56.5891 70.5646 54.5002 70.5646C52.4113 70.5646 50.408 71.3944 48.9309 72.8715C47.4538 74.3486 46.624 76.3519 46.624 78.4408C46.624 80.5297 47.4538 82.533 48.9309 84.0101L72.4631 107.542C73.1961 108.269 74.0653 108.844 75.021 109.235C75.9767 109.625 77.0001 109.823 78.0324 109.817C79.1063 109.783 80.1617 109.529 81.1332 109.07C82.1047 108.611 82.9716 107.958 83.6802 107.15L138.589 44.3975C139.857 42.8234 140.468 40.8207 140.295 38.8069C140.122 36.7931 139.179 34.9237 137.662 33.5884C136.144 32.2532 134.17 31.5551 132.151 31.6399C130.131 31.7246 128.223 32.5856 126.823 34.0433L78.0324 90.5207L60.0695 72.8715Z" fill="#FFFFFD"/>
<path d="M148.63 70.5967C146.55 70.5967 144.554 71.4231 143.083 72.8942C141.612 74.3652 140.786 76.3604 140.786 78.4408C140.786 95.0838 134.175 111.045 122.406 122.814C110.638 134.582 94.6764 141.193 78.0333 141.193C65.6404 141.188 53.5266 137.513 43.2194 130.632C32.9123 123.751 24.8734 113.972 20.1164 102.528C15.3594 91.0845 14.0974 78.4886 16.4894 66.3287C18.8814 54.1688 24.8204 42.9894 33.5574 34.2002C39.3675 28.3123 46.2937 23.6424 53.9305 20.4637C61.5673 17.2851 69.7614 15.6616 78.0333 15.6882C83.0492 15.7196 88.0467 16.2982 92.9371 17.4139C93.9605 17.7304 95.0378 17.834 96.1028 17.7182C97.1678 17.6024 98.1977 17.2697 99.1292 16.7407C100.061 16.2116 100.874 15.4973 101.519 14.6419C102.164 13.7865 102.626 12.8081 102.879 11.767C103.131 10.7259 103.167 9.64416 102.985 8.58848C102.803 7.5328 102.407 6.52556 101.821 5.62884C101.235 4.73213 100.472 3.96495 99.5778 3.37461C98.6839 2.78427 97.6786 2.38327 96.6238 2.19634C90.5301 0.76278 84.2933 0.0259437 78.0333 0C62.5361 0.0805079 47.4099 4.74975 34.5638 13.4185C21.7176 22.0872 11.7271 34.367 5.85305 48.708C-0.0210025 63.0491 -1.51537 78.8089 1.55854 93.9984C4.63245 109.188 12.1369 123.127 23.1248 134.055C37.6888 148.626 57.432 156.834 78.0333 156.882C98.8371 156.882 118.789 148.617 133.499 133.907C148.21 119.196 156.474 99.2446 156.474 78.4408C156.474 76.3604 155.648 74.3652 154.177 72.8942C152.706 71.4231 150.71 70.5967 148.63 70.5967Z" fill="#FFFFFD"/>
</svg>
