<svg width="24" height="24" viewBox="0 0 24 24" fill="none" xmlns="http://www.w3.org/2000/svg">
<path d="M20.4557 3.54425C19.3473 2.42484 18.0286 1.53548 16.5754 0.927247C15.1222 0.319018 13.5632 0.00391354 11.9878 3.62235e-05C10.4125 -0.00384109 8.85188 0.303585 7.3957 0.904654C5.93953 1.50572 4.61647 2.38859 3.50253 3.50253C2.38859 4.61647 1.50572 5.93953 0.904654 7.3957C0.303585 8.85188 -0.00384109 10.4125 3.62235e-05 11.9878C0.00391354 13.5632 0.319018 15.1222 0.927248 16.5754C1.53548 18.0286 2.42484 19.3473 3.54425 20.4557C4.6527 21.5752 5.9714 22.4645 7.42459 23.0728C8.87779 23.681 10.4368 23.9961 12.0122 24C13.5875 24.0038 15.1481 23.6964 16.6043 23.0953C18.0605 22.4943 19.3835 21.6114 20.4975 20.4975C21.6114 19.3835 22.4943 18.0605 23.0953 16.6043C23.6964 15.1481 24.0038 13.5875 24 12.0122C23.9961 10.4368 23.681 8.87779 23.0728 7.42459C22.4645 5.9714 21.5752 4.6527 20.4557 3.54425ZM1.74996 12C1.74958 11.0928 1.86986 10.1896 2.10765 9.31417C2.4995 10.1577 3.06859 10.8864 3.45563 11.7518C3.95586 12.8643 5.29904 12.5557 5.89215 13.5306C6.41853 14.3959 5.85638 15.4904 6.25037 16.3958C6.53652 17.0529 7.21131 17.1966 7.67683 17.677C8.1525 18.1618 8.14236 18.8259 8.21496 19.458C8.29689 20.2006 8.42978 20.9368 8.61268 21.6612C8.61268 21.6665 8.61268 21.6724 8.61695 21.6777C4.62211 20.2748 1.74996 16.4668 1.74996 12ZM12 22.25C11.4276 22.2499 10.8561 22.202 10.2917 22.107C10.2975 21.9623 10.3002 21.8272 10.3146 21.7333C10.4443 20.8844 10.8693 20.0543 11.4427 19.419C12.0091 18.7923 12.7853 18.3684 13.2636 17.6573C13.7324 16.9633 13.8728 16.029 13.6795 15.2181C13.395 14.0201 11.7672 13.6203 10.8896 12.9705C10.3851 12.5969 9.93611 12.0192 9.2736 11.9722C8.96823 11.9509 8.71251 12.0165 8.40982 11.9386C8.13221 11.8665 7.9144 11.7171 7.61864 11.756C7.0661 11.8286 6.71749 12.4191 6.12385 12.339C5.56063 12.2637 4.98033 11.6044 4.8522 11.0679C4.68777 10.3781 5.23337 10.1545 5.81795 10.0931C6.06192 10.0674 6.33579 10.0397 6.57015 10.1294C6.87872 10.2436 7.02446 10.5458 7.30153 10.6985C7.82097 10.9835 7.92614 10.5282 7.8466 10.0669C7.72755 9.3761 7.58875 9.09476 8.20482 8.61909C8.6319 8.2913 8.99706 8.05427 8.92873 7.46543C8.88815 7.11949 8.69863 6.96307 8.87534 6.61873C9.00934 6.35661 9.37716 6.12011 9.61687 5.96369C10.2356 5.56009 12.2675 5.58999 11.4373 4.46035C11.1933 4.12883 10.7433 3.53625 10.3162 3.4551C9.78236 3.3542 9.54533 3.94998 9.17323 4.21264C8.78886 4.48437 8.04039 4.79294 7.65548 4.3728C7.13764 3.80744 7.99875 3.6222 8.18933 3.22714C8.27742 3.04296 8.18933 2.78725 8.04092 2.54648C8.23347 2.46533 8.42921 2.39006 8.62816 2.32066C8.75285 2.41275 8.90076 2.46821 9.05525 2.48081C9.4124 2.5043 9.74926 2.31105 10.061 2.55448C10.407 2.82141 10.6563 3.15881 11.1154 3.24209C11.5596 3.3227 12.0299 3.06378 12.1399 2.60894C12.2066 2.3324 12.1399 2.04038 12.0758 1.75477C14.0724 1.76626 16.0217 2.36421 17.6813 3.47432C17.5745 3.43375 17.4469 3.43855 17.2894 3.51169C16.9654 3.66224 16.5063 4.04554 16.4684 4.42565C16.4251 4.85701 17.0615 4.91787 17.3637 4.91787C17.8174 4.91787 18.2771 4.715 18.1308 4.19075C18.0673 3.96333 17.9808 3.72683 17.8415 3.58376C18.1764 3.81618 18.4973 4.06824 18.8024 4.33863C18.7976 4.34344 18.7928 4.34771 18.788 4.35305C18.4805 4.67336 18.1233 4.92694 17.913 5.31666C17.7646 5.59106 17.5975 5.72132 17.2969 5.79232C17.1314 5.83129 16.9424 5.84571 16.8036 5.95675C16.4171 6.26105 16.6371 6.99243 17.0033 7.21184C17.4662 7.48892 18.1527 7.35865 18.5018 6.96307C18.7746 6.65343 18.9353 6.11584 19.4259 6.11637C19.6419 6.11592 19.8494 6.20049 20.0036 6.3518C20.2064 6.56214 20.1664 6.7586 20.2096 7.02126C20.286 7.48785 20.6976 7.2348 20.948 6.99937C21.1305 7.32418 21.2951 7.65869 21.4412 8.00142C21.1658 8.39807 20.9469 8.8305 20.2844 8.36818C19.8877 8.09111 19.6438 7.68911 19.1457 7.56419C18.7106 7.45742 18.2648 7.56846 17.835 7.64267C17.3466 7.72755 16.7673 7.76492 16.3968 8.13488C16.0386 8.4915 15.8491 8.96876 15.4679 9.32698C14.7307 10.021 14.4194 10.7785 14.8967 11.7598C15.3558 12.7031 16.3162 13.2151 17.3524 13.1478C18.3705 13.08 19.4281 12.4895 19.3987 13.9689C19.388 14.4926 19.4975 14.8551 19.6582 15.3414C19.8071 15.7898 19.797 16.2244 19.8311 16.6873C19.8636 17.2293 19.9484 17.7669 20.0842 18.2926C19.1273 19.5246 17.9015 20.5216 16.5004 21.2075C15.0993 21.8934 13.56 22.25 12 22.25Z" fill="#FFFFFD"/>
</svg>
