<svg width="26" height="23" viewBox="0 0 26 23" fill="none" xmlns="http://www.w3.org/2000/svg">
<path d="M14.4337 21.0281C15.7154 19.9899 16.6936 18.6288 17.2636 17.0864L19.0139 12.3541L11.9427 18.082L14.3706 21.0792L14.4337 21.0281ZM12.5396 4.36164L7.54713 5.09137C5.92001 5.32873 4.38543 6.00303 3.10379 7.04122L3.04065 7.09236L5.46849 10.0895L12.5396 4.36164ZM4.45833 10.9078L2.03049 7.91063L1.52541 8.31977C0.688867 8.9974 0.553899 10.2184 1.22408 11.0458L2.43801 12.5444L2.69055 12.3398C1.9929 12.9049 1.88053 13.9215 2.43944 14.6115L6.89049 20.1063C7.4494 20.7963 8.46715 20.8974 9.16479 20.3323L8.91225 20.5369L10.1262 22.0355C10.7964 22.8628 12.0188 22.9843 12.8553 22.3066L13.3604 21.8975L10.9326 18.9003L11.1851 18.6957C12.0122 18.0258 12.4259 17.0392 12.3962 16.0601L21.4876 8.69569C23.6753 6.92362 25.1752 4.53489 25.0809 1.56575C25.0679 1.13672 24.7695 0.768316 24.3525 0.666594C21.4677 -0.0420657 18.8196 0.929241 16.6319 2.70131L7.54048 10.0658C6.58897 9.83342 5.53794 10.0333 4.71087 10.7032L4.45833 10.9078ZM20.514 3.87939L21.1437 4.65678C21.6394 5.26871 21.5421 6.17482 20.9202 6.67857C20.8413 6.7425 20.7307 6.72864 20.67 6.65371L18.4622 3.92814C18.399 3.85009 18.4141 3.73963 18.4898 3.67826C19.1086 3.17707 20.0158 3.26434 20.514 3.87939Z" fill="#FFFFFD"/>
</svg>
